<svg width="16" height="16" viewBox="0 0 16 16" fill="none" xmlns="http://www.w3.org/2000/svg">
<path fill-rule="evenodd" clip-rule="evenodd" d="M7.99935 1.33337C5.05402 1.33337 2.66602 4.00204 2.66602 7.00004C2.66602 9.97471 4.36802 13.208 7.02402 14.4494C7.32929 14.5923 7.66226 14.6664 7.99935 14.6664C8.33644 14.6664 8.6694 14.5923 8.97468 14.4494C11.6307 13.208 13.3327 9.97471 13.3327 7.00004C13.3327 4.00204 10.9447 1.33337 7.99935 1.33337ZM7.99935 8.00004C8.35297 8.00004 8.69211 7.85956 8.94216 7.60952C9.19221 7.35947 9.33268 7.02033 9.33268 6.66671C9.33268 6.31309 9.19221 5.97395 8.94216 5.7239C8.69211 5.47385 8.35297 5.33337 7.99935 5.33337C7.64573 5.33337 7.30659 5.47385 7.05654 5.7239C6.80649 5.97395 6.66602 6.31309 6.66602 6.66671C6.66602 7.02033 6.80649 7.35947 7.05654 7.60952C7.30659 7.85956 7.64573 8.00004 7.99935 8.00004Z" fill="#6E7FA1"/>
</svg>
