<svg width="159" height="63" viewBox="0 0 159 63" fill="none" xmlns="http://www.w3.org/2000/svg">
<g filter="url(#filter0_ii_338_1940)">
<path d="M35.2984 53.1534C29.416 52.9846 24.3305 49.0758 22.5254 43.4649L22.398 43.0688C19.7597 34.8679 19.9385 26.0343 22.9059 17.9771C24.866 12.655 29.9206 9.12013 35.601 9.10894C45.5763 9.08929 62.5433 9.07255 82.0264 9.12324C98.2098 9.16534 114.469 9.68674 125.092 10.1077C132.128 10.3866 137.963 15.6224 139.094 22.5781L139.439 24.7014C140.259 29.741 140.154 34.8828 139.13 39.8748L138.96 40.699C137.552 47.5673 131.544 52.499 124.528 52.5774C114.932 52.6846 100.127 52.8932 82.0824 53.289C62.0811 53.7277 45.2659 53.4396 35.2984 53.1534Z" fill="url(#paint0_linear_338_1940)"/>
</g>
<path d="M56.9672 48.538C52.5386 49.4656 47.9681 46.7857 46.8924 42.376L46.8047 42.0163C45.0537 34.8378 45.1925 27.3403 47.2077 20.2572C48.4018 16.0599 52.8932 13.6839 57.1515 14.6982C63.8976 16.3051 74.4681 18.2168 86.5141 18.1945C96.5223 18.1759 106.601 16.76 113.674 15.4821C118.811 14.554 123.879 18.0808 124.511 23.2743L124.616 24.1346C125.276 29.5504 125.174 35.0267 124.315 40.4041C123.536 45.2756 118.429 48.3321 113.594 47.2989C107.195 45.9315 97.8031 44.5928 86.5141 44.9753C74.2082 45.3923 63.7216 47.1232 56.9672 48.538Z" fill="#A7A5A5"/>
<g filter="url(#filter1_di_338_1940)">
<path d="M23.4646 39.7543C20.868 34.355 20.8159 28.0381 23.3621 22.6469C26.3648 16.2894 32.6986 12.1961 39.7439 12.0942C43.1066 12.0455 47.0239 11.9928 51.2402 11.9404C51.3939 11.9385 51.4598 12.1435 51.3383 12.2378C51.216 12.3328 51.3038 12.5219 51.4578 12.5046C52.3881 12.4001 53.3469 12.4381 54.2996 12.6381C61.7787 14.2084 73.9222 16.1672 87.8445 16.1313C98.8834 16.1028 110 14.5262 117.888 13.0825C119.321 12.8204 120.749 12.8626 122.101 13.1598C122.145 13.1693 122.172 13.1153 122.138 13.0869C122.107 13.0605 122.127 13.009 122.168 13.0115C124.688 13.1697 126.851 13.3136 128.518 13.4311C130.788 13.591 132.733 15.09 133.497 17.2368L133.828 18.1684C137.063 27.2583 136.936 37.1877 133.47 46.1499C132.719 48.092 130.923 49.4167 128.841 49.5405C126.991 49.6505 124.452 49.7964 121.39 49.9625C121.208 49.9723 121.132 49.7173 121.284 49.617C121.432 49.5185 121.337 49.2945 121.16 49.3142C120.055 49.4372 118.919 49.3898 117.797 49.1499C110.653 47.6221 100.274 46.1546 87.8308 46.5922C73.6837 47.0899 61.6865 49.1674 54.1687 50.8051C53.7673 50.8926 53.3642 50.9505 52.9628 50.9813C52.9384 50.9832 52.9336 51.0162 52.9567 51.0242C52.9816 51.0328 52.9748 51.0694 52.9485 51.0683C47.8346 50.863 43.1176 50.6264 39.2068 50.4086C32.4321 50.0313 26.4122 45.8831 23.4646 39.7543ZM45.8064 20.0649C43.77 27.0326 43.6302 34.4293 45.4021 41.4926L45.49 41.8442C46.5392 46.0263 50.8653 48.5648 55.076 47.6967C61.7762 46.3154 72.3731 44.5855 84.8504 44.1772C96.3129 43.8021 105.809 45.1622 112.179 46.5151C116.796 47.4953 121.655 44.5804 122.418 39.9331C123.29 34.6185 123.392 29.2004 122.72 23.8471L122.616 23.0131C121.995 18.0615 117.174 14.7003 112.27 15.5717C105.218 16.825 94.9954 18.2463 84.8455 18.2622C72.645 18.2812 61.9662 16.3599 55.2762 14.7866C51.2286 13.8347 46.9695 16.0854 45.8064 20.0649Z" fill="url(#paint1_linear_338_1940)"/>
</g>
<g filter="url(#filter2_di_338_1940)">
<path d="M49.5839 50.2989C49.1966 50.4059 48.7937 50.1706 48.6981 49.7788L44.1771 31.244C44.1483 31.126 44.1506 31.0028 44.1837 30.8864L49.2026 13.2452C49.3122 12.8601 49.7185 12.6441 50.1012 12.7666C53.4274 13.8308 68.2803 18.2283 86.5141 18.1945C102.599 18.1646 118.867 14.5252 122.546 13.6506C122.957 13.5527 123.362 13.8376 123.413 14.2586L125.598 32.2004C125.606 32.2654 125.605 32.3311 125.595 32.3956L122.944 48.9838C122.874 49.4204 122.429 49.6883 122.009 49.5465C118.676 48.4213 105.192 44.3424 86.5141 44.9753C67.5488 45.618 52.9047 49.3812 49.5839 50.2989Z" fill="url(#paint2_linear_338_1940)"/>
</g>
<g filter="url(#filter3_d_338_1940)">
<g filter="url(#filter4_d_338_1940)">
<path d="M32.5895 13.0302C29.4157 14.5085 28.5543 16.6759 28.5062 18.1609C28.4901 18.6571 29.0544 18.8426 29.4485 18.54C32.5603 16.1506 37.452 14.0208 40.8868 12.7518C41.5343 12.5126 41.4628 11.6615 40.7741 11.624C38.5003 11.5003 35.3869 11.7273 32.5895 13.0302Z" fill="white"/>
<path d="M29.7459 17.0742C32.2603 15.3467 35.5205 13.8042 38.325 12.6595C36.7801 12.7691 35.0939 13.0797 33.5062 13.7359L33.0166 13.9508C31.0097 14.8855 30.1128 16.0749 29.7459 17.0742Z" stroke="white" stroke-width="2.03159" stroke-linecap="round"/>
</g>
</g>
<g filter="url(#filter5_d_338_1940)">
<path d="M32.7651 50.1464C29.3954 48.6677 28.4662 46.4025 28.4002 44.8567C28.3791 44.3608 28.9404 44.1644 29.3399 44.4588C32.6595 46.9054 37.8862 49.0344 41.508 50.2749C42.1608 50.4984 42.1101 51.354 41.4224 51.4105C39.0488 51.6051 35.7494 51.456 32.7651 50.1464Z" fill="white"/>
<path d="M29.6338 45.8987C32.3734 47.7131 35.9693 49.305 39.0062 50.4535C37.3246 50.3947 35.459 50.1129 33.6974 49.4319L33.1735 49.2158C30.9718 48.2497 30.0132 46.966 29.6338 45.8987Z" stroke="white" stroke-width="2.03159" stroke-linecap="round"/>
</g>
<g filter="url(#filter6_di_338_1940)">
<path d="M53.171 51.0237C53.8451 51.0335 54.5282 50.968 55.2072 50.8186C62.6197 49.1876 74.3465 47.1421 88.1544 46.6487C100.25 46.2165 110.366 47.642 117.389 49.1487C117.952 49.2696 118.519 49.3402 119.084 49.3675C118.094 49.8042 117.012 50.0707 115.876 50.1282C108.945 50.4789 97.5184 50.9995 83.5812 51.4173C71.0009 51.7943 60.3278 51.4343 53.171 51.0237ZM41.7003 43.347C39.5453 35.1743 39.7076 26.578 42.1681 18.5237L42.4074 17.7386C43.4004 14.488 46.3167 12.2177 49.7179 12.0891C56.6548 11.827 69.3193 11.4422 84.0265 11.4388C96.0798 11.4359 108.23 12.1609 115.841 12.7239C116.565 12.7775 117.265 12.9126 117.935 13.1175C117.779 13.1391 117.623 13.162 117.467 13.1907C109.719 14.6201 98.9069 16.1596 88.1691 16.1878C74.5772 16.2234 62.7077 14.2971 55.3302 12.7337C50.9146 11.7979 46.3572 14.2949 45.0988 18.6155L44.8663 19.4134C42.6813 26.9151 42.4773 34.8684 44.2746 42.4993L44.7277 44.4202C45.5919 48.0896 48.7987 50.6121 52.3966 50.9778C51.1979 50.906 50.1072 50.8338 49.1329 50.7639C45.7575 50.522 42.9592 48.1179 42.0949 44.8411L41.7003 43.347Z" fill="url(#paint3_linear_338_1940)"/>
</g>
<g filter="url(#filter7_ii_338_1940)">
<path d="M25.7503 40.0031C23.2379 34.5882 23.1875 28.3182 25.6488 22.9171C28.6808 16.2638 35.2543 11.9561 42.5833 11.8468C45.8953 11.7975 49.7158 11.745 53.809 11.6926C53.9003 11.6915 53.9378 11.8126 53.8633 11.8656C53.788 11.9191 53.8349 12.0352 53.9269 12.0271C54.8149 11.9489 55.7259 11.999 56.6302 12.1954C64.0527 13.8084 75.9608 15.7878 89.5912 15.7511C100.163 15.7226 110.808 14.1972 118.561 12.7472C119.046 12.6565 119.531 12.6001 120.013 12.5743C120.895 12.628 121.749 12.6783 122.568 12.7306C122.839 12.7786 123.108 12.8362 123.374 12.9033C123.409 12.9121 123.431 12.869 123.403 12.8466C123.377 12.826 123.393 12.7851 123.426 12.7873C125.851 12.9446 127.948 13.0886 129.593 13.2081C131.995 13.3826 134.047 14.9874 134.83 17.2697L135.154 18.2101C138.336 27.4777 138.211 37.5391 134.802 46.6759C134.032 48.7396 132.137 50.1549 129.935 50.2902C128.301 50.3905 126.163 50.5191 123.625 50.6634C123.355 50.6788 123.224 50.3139 123.431 50.1392C123.642 49.9604 123.453 49.6349 123.182 49.6928C121.665 50.018 120.064 50.0391 118.493 49.7003C111.453 48.1832 101.467 46.7853 89.5775 47.2218C75.7309 47.7302 63.9649 49.8339 56.5082 51.5167C55.748 51.6882 54.9819 51.7549 54.2285 51.7275C54.2057 51.7267 54.1971 51.7567 54.2172 51.7676C54.2376 51.7786 54.229 51.8096 54.2059 51.8086C49.7145 51.6168 45.5559 51.402 42.0208 51.2003C34.972 50.7981 28.7299 46.4246 25.7503 40.0031ZM47.9154 20.2804C45.9426 27.2764 45.8075 34.6768 47.5238 41.7677L47.6107 42.1232C48.6768 46.5279 53.2466 49.207 57.6664 48.2785C64.3202 46.8802 74.5934 45.1821 86.6361 44.7736C97.6793 44.399 106.879 45.7116 113.177 47.0617C117.997 48.0945 123.093 45.0482 123.862 40.1915C124.701 34.8878 124.8 29.4876 124.154 24.1456L124.05 23.2921C123.424 18.1129 118.365 14.5936 113.244 15.5216C106.287 16.7825 96.4256 18.1688 86.6322 18.1847C74.8397 18.2038 64.4824 16.3248 57.8353 14.7335C53.5849 13.7162 49.0977 16.0884 47.9154 20.2804Z" fill="url(#paint4_linear_338_1940)"/>
</g>
<g filter="url(#filter8_ii_338_1940)">
<path d="M69.7709 46.2539C66.2269 36.9803 66.1691 26.7356 69.6084 17.4227L69.7283 17.0982C69.7283 17.0982 75.8629 17.9095 88.8997 17.9095C101.856 17.5982 107.675 16.4742 107.675 16.4742L107.918 17.5858C109.97 26.9848 109.86 36.7274 107.594 46.0774C107.594 46.0774 97.6277 44.9021 88.8877 44.9688C81.377 45.0261 69.7709 46.2539 69.7709 46.2539Z" fill="url(#paint5_linear_338_1940)"/>
</g>
<defs>
<filter id="filter0_ii_338_1940" x="20.541" y="6.38105" width="121.475" height="47.1336" filterUnits="userSpaceOnUse" color-interpolation-filters="sRGB">
<feFlood flood-opacity="0" result="BackgroundImageFix"/>
<feBlend mode="normal" in="SourceGraphic" in2="BackgroundImageFix" result="shape"/>
<feColorMatrix in="SourceAlpha" type="matrix" values="0 0 0 0 0 0 0 0 0 0 0 0 0 0 0 0 0 0 127 0" result="hardAlpha"/>
<feOffset dx="2.03159" dy="-2.70879"/>
<feGaussianBlur stdDeviation="8.12637"/>
<feComposite in2="hardAlpha" operator="arithmetic" k2="-1" k3="1"/>
<feColorMatrix type="matrix" values="0 0 0 0 0 0 0 0 0 0 0 0 0 0 0 0 0 0 0.07 0"/>
<feBlend mode="normal" in2="shape" result="effect1_innerShadow_338_1940"/>
<feColorMatrix in="SourceAlpha" type="matrix" values="0 0 0 0 0 0 0 0 0 0 0 0 0 0 0 0 0 0 127 0" result="hardAlpha"/>
<feOffset dy="-0.338599"/>
<feGaussianBlur stdDeviation="0.677197"/>
<feComposite in2="hardAlpha" operator="arithmetic" k2="-1" k3="1"/>
<feColorMatrix type="matrix" values="0 0 0 0 0 0 0 0 0 0 0 0 0 0 0 0 0 0 0.25 0"/>
<feBlend mode="normal" in2="effect1_innerShadow_338_1940" result="effect2_innerShadow_338_1940"/>
</filter>
<filter id="filter1_di_338_1940" x="20.13" y="11.9404" width="116.386" height="40.4823" filterUnits="userSpaceOnUse" color-interpolation-filters="sRGB">
<feFlood flood-opacity="0" result="BackgroundImageFix"/>
<feColorMatrix in="SourceAlpha" type="matrix" values="0 0 0 0 0 0 0 0 0 0 0 0 0 0 0 0 0 0 127 0" result="hardAlpha"/>
<feOffset dy="0.350155"/>
<feGaussianBlur stdDeviation="0.175077"/>
<feColorMatrix type="matrix" values="0 0 0 0 0.925374 0 0 0 0 0.925374 0 0 0 0 0.925374 0 0 0 0.37 0"/>
<feBlend mode="normal" in2="BackgroundImageFix" result="effect1_dropShadow_338_1940"/>
<feBlend mode="normal" in="SourceGraphic" in2="effect1_dropShadow_338_1940" result="shape"/>
<feColorMatrix in="SourceAlpha" type="matrix" values="0 0 0 0 0 0 0 0 0 0 0 0 0 0 0 0 0 0 127 0" result="hardAlpha"/>
<feOffset dx="-1.35439" dy="1.69299"/>
<feGaussianBlur stdDeviation="0.677197"/>
<feComposite in2="hardAlpha" operator="arithmetic" k2="-1" k3="1"/>
<feColorMatrix type="matrix" values="0 0 0 0 0 0 0 0 0 0 0 0 0 0 0 0 0 0 0.8 0"/>
<feBlend mode="normal" in2="shape" result="effect2_innerShadow_338_1940"/>
</filter>
<filter id="filter2_di_338_1940" x="42.8019" y="12.7324" width="83.1518" height="38.9472" filterUnits="userSpaceOnUse" color-interpolation-filters="sRGB">
<feFlood flood-opacity="0" result="BackgroundImageFix"/>
<feColorMatrix in="SourceAlpha" type="matrix" values="0 0 0 0 0 0 0 0 0 0 0 0 0 0 0 0 0 0 127 0" result="hardAlpha"/>
<feOffset dy="0.350155"/>
<feGaussianBlur stdDeviation="0.175077"/>
<feColorMatrix type="matrix" values="0 0 0 0 0.925374 0 0 0 0 0.925374 0 0 0 0 0.925374 0 0 0 0.37 0"/>
<feBlend mode="normal" in2="BackgroundImageFix" result="effect1_dropShadow_338_1940"/>
<feBlend mode="normal" in="SourceGraphic" in2="effect1_dropShadow_338_1940" result="shape"/>
<feColorMatrix in="SourceAlpha" type="matrix" values="0 0 0 0 0 0 0 0 0 0 0 0 0 0 0 0 0 0 127 0" result="hardAlpha"/>
<feOffset dx="-1.35439" dy="1.69299"/>
<feGaussianBlur stdDeviation="0.677197"/>
<feComposite in2="hardAlpha" operator="arithmetic" k2="-1" k3="1"/>
<feColorMatrix type="matrix" values="0 0 0 0 0 0 0 0 0 0 0 0 0 0 0 0 0 0 0.8 0"/>
<feBlend mode="normal" in2="shape" result="effect2_innerShadow_338_1940"/>
</filter>
<filter id="filter3_d_338_1940" x="27.8287" y="10.2403" width="14.1825" height="8.44619" filterUnits="userSpaceOnUse" color-interpolation-filters="sRGB">
<feFlood flood-opacity="0" result="BackgroundImageFix"/>
<feColorMatrix in="SourceAlpha" type="matrix" values="0 0 0 0 0 0 0 0 0 0 0 0 0 0 0 0 0 0 127 0" result="hardAlpha"/>
<feOffset dy="-0.677197"/>
<feGaussianBlur stdDeviation="0.338599"/>
<feColorMatrix type="matrix" values="0 0 0 0 0 0 0 0 0 0 0 0 0 0 0 0 0 0 0.25 0"/>
<feBlend mode="normal" in2="BackgroundImageFix" result="effect1_dropShadow_338_1940"/>
<feBlend mode="normal" in="SourceGraphic" in2="effect1_dropShadow_338_1940" result="shape"/>
</filter>
<filter id="filter4_d_338_1940" x="28.1673" y="11.5947" width="13.5053" height="7.76899" filterUnits="userSpaceOnUse" color-interpolation-filters="sRGB">
<feFlood flood-opacity="0" result="BackgroundImageFix"/>
<feColorMatrix in="SourceAlpha" type="matrix" values="0 0 0 0 0 0 0 0 0 0 0 0 0 0 0 0 0 0 127 0" result="hardAlpha"/>
<feOffset dy="0.338599"/>
<feGaussianBlur stdDeviation="0.169299"/>
<feColorMatrix type="matrix" values="0 0 0 0 1 0 0 0 0 1 0 0 0 0 1 0 0 0 0.25 0"/>
<feBlend mode="normal" in2="BackgroundImageFix" result="effect1_dropShadow_338_1940"/>
<feBlend mode="normal" in="SourceGraphic" in2="effect1_dropShadow_338_1940" result="shape"/>
</filter>
<filter id="filter5_d_338_1940" x="27.7232" y="42.9659" width="14.9228" height="8.51455" filterUnits="userSpaceOnUse" color-interpolation-filters="sRGB">
<feFlood flood-opacity="0" result="BackgroundImageFix"/>
<feColorMatrix in="SourceAlpha" type="matrix" values="0 0 0 0 0 0 0 0 0 0 0 0 0 0 0 0 0 0 127 0" result="hardAlpha"/>
<feOffset dy="-0.677197"/>
<feGaussianBlur stdDeviation="0.338599"/>
<feColorMatrix type="matrix" values="0 0 0 0 0 0 0 0 0 0 0 0 0 0 0 0 0 0 0.25 0"/>
<feBlend mode="normal" in2="BackgroundImageFix" result="effect1_dropShadow_338_1940"/>
<feBlend mode="normal" in="SourceGraphic" in2="effect1_dropShadow_338_1940" result="shape"/>
</filter>
<filter id="filter6_di_338_1940" x="38.8409" y="11.4385" width="80.5932" height="41.4921" filterUnits="userSpaceOnUse" color-interpolation-filters="sRGB">
<feFlood flood-opacity="0" result="BackgroundImageFix"/>
<feColorMatrix in="SourceAlpha" type="matrix" values="0 0 0 0 0 0 0 0 0 0 0 0 0 0 0 0 0 0 127 0" result="hardAlpha"/>
<feOffset dy="0.350155"/>
<feGaussianBlur stdDeviation="0.175077"/>
<feColorMatrix type="matrix" values="0 0 0 0 0.925374 0 0 0 0 0.925374 0 0 0 0 0.925374 0 0 0 0.37 0"/>
<feBlend mode="normal" in2="BackgroundImageFix" result="effect1_dropShadow_338_1940"/>
<feBlend mode="normal" in="SourceGraphic" in2="effect1_dropShadow_338_1940" result="shape"/>
<feColorMatrix in="SourceAlpha" type="matrix" values="0 0 0 0 0 0 0 0 0 0 0 0 0 0 0 0 0 0 127 0" result="hardAlpha"/>
<feOffset dx="-1.35439" dy="1.69299"/>
<feGaussianBlur stdDeviation="0.677197"/>
<feComposite in2="hardAlpha" operator="arithmetic" k2="-1" k3="1"/>
<feColorMatrix type="matrix" values="0 0 0 0 0 0 0 0 0 0 0 0 0 0 0 0 0 0 0.8 0"/>
<feBlend mode="normal" in2="shape" result="effect2_innerShadow_338_1940"/>
</filter>
<filter id="filter7_ii_338_1940" x="23.834" y="8.98359" width="115.651" height="42.825" filterUnits="userSpaceOnUse" color-interpolation-filters="sRGB">
<feFlood flood-opacity="0" result="BackgroundImageFix"/>
<feBlend mode="normal" in="SourceGraphic" in2="BackgroundImageFix" result="shape"/>
<feColorMatrix in="SourceAlpha" type="matrix" values="0 0 0 0 0 0 0 0 0 0 0 0 0 0 0 0 0 0 127 0" result="hardAlpha"/>
<feOffset dx="2.03159" dy="-2.70879"/>
<feGaussianBlur stdDeviation="8.12637"/>
<feComposite in2="hardAlpha" operator="arithmetic" k2="-1" k3="1"/>
<feColorMatrix type="matrix" values="0 0 0 0 0 0 0 0 0 0 0 0 0 0 0 0 0 0 0.07 0"/>
<feBlend mode="normal" in2="shape" result="effect1_innerShadow_338_1940"/>
<feColorMatrix in="SourceAlpha" type="matrix" values="0 0 0 0 0 0 0 0 0 0 0 0 0 0 0 0 0 0 127 0" result="hardAlpha"/>
<feOffset dy="-0.338599"/>
<feGaussianBlur stdDeviation="0.677197"/>
<feComposite in2="hardAlpha" operator="arithmetic" k2="-1" k3="1"/>
<feColorMatrix type="matrix" values="0 0 0 0 0 0 0 0 0 0 0 0 0 0 0 0 0 0 0.09 0"/>
<feBlend mode="normal" in2="effect1_innerShadow_338_1940" result="effect2_innerShadow_338_1940"/>
</filter>
<filter id="filter8_ii_338_1940" x="67.0703" y="13.7658" width="44.3402" height="32.4881" filterUnits="userSpaceOnUse" color-interpolation-filters="sRGB">
<feFlood flood-opacity="0" result="BackgroundImageFix"/>
<feBlend mode="normal" in="SourceGraphic" in2="BackgroundImageFix" result="shape"/>
<feColorMatrix in="SourceAlpha" type="matrix" values="0 0 0 0 0 0 0 0 0 0 0 0 0 0 0 0 0 0 127 0" result="hardAlpha"/>
<feOffset dx="2.03159" dy="-2.70879"/>
<feGaussianBlur stdDeviation="8.12637"/>
<feComposite in2="hardAlpha" operator="arithmetic" k2="-1" k3="1"/>
<feColorMatrix type="matrix" values="0 0 0 0 0 0 0 0 0 0 0 0 0 0 0 0 0 0 0.07 0"/>
<feBlend mode="normal" in2="shape" result="effect1_innerShadow_338_1940"/>
<feColorMatrix in="SourceAlpha" type="matrix" values="0 0 0 0 0 0 0 0 0 0 0 0 0 0 0 0 0 0 127 0" result="hardAlpha"/>
<feOffset dy="-0.338599"/>
<feGaussianBlur stdDeviation="0.677197"/>
<feComposite in2="hardAlpha" operator="arithmetic" k2="-1" k3="1"/>
<feColorMatrix type="matrix" values="0 0 0 0 0 0 0 0 0 0 0 0 0 0 0 0 0 0 0.25 0"/>
<feBlend mode="normal" in2="effect1_innerShadow_338_1940" result="effect2_innerShadow_338_1940"/>
</filter>
<linearGradient id="paint0_linear_338_1940" x1="134.894" y1="35.4721" x2="127.483" y2="66.9304" gradientUnits="userSpaceOnUse">
<stop stop-color="#D8D8D8"/>
<stop offset="1" stop-color="white"/>
</linearGradient>
<linearGradient id="paint1_linear_338_1940" x1="355.257" y1="13.4241" x2="322.784" y2="114.273" gradientUnits="userSpaceOnUse">
<stop stop-color="#E8EAE9"/>
<stop offset="0.498386" stop-color="#707072"/>
<stop offset="1" stop-color="#2F3032"/>
</linearGradient>
<linearGradient id="paint2_linear_338_1940" x1="281.497" y1="18.2196" x2="238.963" y2="108.633" gradientUnits="userSpaceOnUse">
<stop stop-color="#E8EAE9"/>
<stop offset="0.498386" stop-color="#707072"/>
<stop offset="1" stop-color="#2F3032"/>
</linearGradient>
<linearGradient id="paint3_linear_338_1940" x1="269.797" y1="12.9685" x2="225.26" y2="105.741" gradientUnits="userSpaceOnUse">
<stop stop-color="#E8EAE9"/>
<stop offset="0.498386" stop-color="#707072"/>
<stop offset="1" stop-color="#2F3032"/>
</linearGradient>
<linearGradient id="paint4_linear_338_1940" x1="132.125" y1="34.2999" x2="126.317" y2="62.5266" gradientUnits="userSpaceOnUse">
<stop stop-color="#D8D8D8"/>
<stop offset="1" stop-color="white"/>
</linearGradient>
<linearGradient id="paint5_linear_338_1940" x1="118.657" y1="20.9077" x2="107.437" y2="52.7446" gradientUnits="userSpaceOnUse">
<stop stop-color="#D2D2D2"/>
<stop offset="0.350909" stop-color="#CACACA"/>
<stop offset="1" stop-color="#F6F6F6"/>
</linearGradient>
</defs>
</svg>
