<svg width="16" height="17" viewBox="0 0 16 17" fill="none" xmlns="http://www.w3.org/2000/svg">
<path fill-rule="evenodd" clip-rule="evenodd" d="M7.99935 1.83337C5.05402 1.83337 2.66602 4.50204 2.66602 7.50004C2.66602 10.4747 4.36802 13.708 7.02402 14.9494C7.32929 15.0923 7.66226 15.1664 7.99935 15.1664C8.33644 15.1664 8.6694 15.0923 8.97468 14.9494C11.6307 13.708 13.3327 10.4747 13.3327 7.50004C13.3327 4.50204 10.9447 1.83337 7.99935 1.83337ZM7.99935 8.50004C8.35297 8.50004 8.69211 8.35956 8.94216 8.10952C9.19221 7.85947 9.33268 7.52033 9.33268 7.16671C9.33268 6.81309 9.19221 6.47395 8.94216 6.2239C8.69211 5.97385 8.35297 5.83337 7.99935 5.83337C7.64573 5.83337 7.30659 5.97385 7.05654 6.2239C6.80649 6.47395 6.66602 6.81309 6.66602 7.16671C6.66602 7.52033 6.80649 7.85947 7.05654 8.10952C7.30659 8.35956 7.64573 8.50004 7.99935 8.50004Z" fill="#0B03FD"/>
</svg>
