<svg width="28" height="41" viewBox="0 0 28 41" fill="none" xmlns="http://www.w3.org/2000/svg">
<path d="M14.0219 39.7281C16.3251 39.7281 18.1922 37.861 18.1922 35.5578C18.1922 33.2548 16.3251 31.3877 14.0219 31.3877C11.7188 31.3877 9.85175 33.2548 9.85175 35.5578C9.85175 37.861 11.7188 39.7281 14.0219 39.7281Z" fill="#1D1F24"/>
<path fill-rule="evenodd" clip-rule="evenodd" d="M14.0215 32.4137C12.2848 32.4137 10.877 33.8215 10.877 35.5582C10.877 37.2949 12.2848 38.7027 14.0215 38.7027C15.7582 38.7027 17.166 37.2949 17.166 35.5582C17.166 33.8215 15.7582 32.4137 14.0215 32.4137ZM8.82568 35.5582C8.82568 32.6886 11.1519 30.3623 14.0215 30.3623C16.8911 30.3623 19.2174 32.6886 19.2174 35.5582C19.2174 38.4278 16.8911 40.754 14.0215 40.754C11.1519 40.754 8.82568 38.4278 8.82568 35.5582Z" fill="#FDFDFD"/>
<path fill-rule="evenodd" clip-rule="evenodd" d="M13.0106 22.9512H14.8705V34.8213H13.0106V22.9512Z" fill="#1D1F24"/>
<rect x="9.15527e-05" width="28" height="28" rx="14" fill="#1D1F24"/>
<path d="M15.1003 15.8942H12.685C12.1327 15.8942 11.685 15.4465 11.685 14.8942V14.8173C11.685 14.265 12.1327 13.8173 12.685 13.8173H15.1003C15.6589 13.8173 16.1112 13.7212 16.4573 13.5288C16.8094 13.3301 17.0675 13.0609 17.2314 12.7212C17.3954 12.375 17.4773 11.9808 17.4773 11.5385C17.4773 11.109 17.3954 10.7083 17.2314 10.3365C17.0675 9.96474 16.8094 9.66346 16.4573 9.43269C16.1112 9.20192 15.6589 9.08654 15.1003 9.08654H13.5046C12.9524 9.08654 12.5046 9.53425 12.5046 10.0865V20C12.5046 20.5523 12.0569 21 11.5046 21H11.0001C10.4478 21 10.0001 20.5523 10.0001 20V8C10.0001 7.44772 10.4478 7 11.0001 7H15.1003C16.1325 7 17.0128 7.19551 17.7414 7.58654C18.4761 7.97115 19.0347 8.50641 19.4172 9.19231C19.8058 9.87179 20.0001 10.6474 20.0001 11.5192C20.0001 12.4231 19.8058 13.2019 19.4172 13.8558C19.0347 14.5096 18.4761 15.0128 17.7414 15.3654C17.0128 15.7179 16.1325 15.8942 15.1003 15.8942Z" fill="white"/>
</svg>
