<svg width="57" height="56" viewBox="0 0 57 56" fill="none" xmlns="http://www.w3.org/2000/svg">
<ellipse opacity="0.3" cx="28.4996" cy="48.606" rx="8.5992" ry="4.2867" fill="#171717"/>
<path d="M46 20.068C46 34.8202 28.5 48.6064 28.5 48.6064C28.5 48.6064 11 34.8202 11 20.068C11 10.7004 18.835 3.10645 28.5 3.10645C38.165 3.10645 46 10.7004 46 20.068Z" fill="#E25319"/>
<path d="M24.2748 30.8799L26.5989 30.8799L26.5989 24.7733L29.6522 24.7733C32.546 24.7733 34.6879 22.7682 34.6879 19.8288C34.6879 16.8667 32.6371 14.9299 29.6522 14.9299L24.2748 14.9299L24.2748 30.8799ZM26.5989 22.677L26.5989 17.0489L29.5155 17.0489C31.2244 17.0489 32.3181 18.211 32.3181 19.8288C32.3181 21.4466 31.2244 22.677 29.5155 22.677L26.5989 22.677Z" fill="white"/>
</svg>
