<svg width="56" height="56" viewBox="0 0 56 56" fill="none" xmlns="http://www.w3.org/2000/svg">
<circle cx="28.0002" cy="28" r="28" fill="#E25319" fill-opacity="0.2"/>
<path d="M32.0002 28C32.0002 30.2091 30.2093 32 28.0002 32C25.791 32 24.0002 30.2091 24.0002 28C24.0002 25.7909 25.791 24 28.0002 24C30.2093 24 32.0002 25.7909 32.0002 28Z" fill="#1D1F24"/>
<path fill-rule="evenodd" clip-rule="evenodd" d="M34.0002 28C34.0002 31.3137 31.3139 34 28.0002 34C24.6864 34 22.0002 31.3137 22.0002 28C22.0002 24.6863 24.6864 22 28.0002 22C31.3139 22 34.0002 24.6863 34.0002 28ZM28.0002 32C30.2093 32 32.0002 30.2091 32.0002 28C32.0002 25.7909 30.2093 24 28.0002 24C25.791 24 24.0002 25.7909 24.0002 28C24.0002 30.2091 25.791 32 28.0002 32Z" fill="#FDFDFD"/>
<g filter="url(#filter0_d_5_5167)">
<path d="M29.9599 39.1573L30.7736 39.8747C31.5074 40.5203 32.3939 40.9735 33.3531 41.1546C35.1077 41.4813 36.5692 40.857 38.1652 39.3806L39.3806 38.1652C40.853 36.5732 41.4813 35.1076 41.1506 33.3571C40.9696 32.3978 40.5163 31.5114 39.8707 30.7775L39.1533 29.9639C38.691 29.4374 38.1846 28.9471 37.6381 28.5048L37.5144 28.4052L25.0629 15.9537C24.3052 15.2602 23.7941 15.0138 22.9634 14.6484C21.5454 14.0888 20.2084 14.5407 17.7858 16.9394L16.9314 17.7937C14.5327 20.2164 14.0848 21.5574 14.6404 22.9714C15.0058 23.8021 15.2562 24.3092 15.9457 25.0709L28.3932 37.5184L28.4928 37.6421C28.9431 38.1806 29.4335 38.687 29.9599 39.1573ZM28.6975 36.0899L26.5198 32.8452C26.3725 32.6257 26.2211 32.4102 26.0658 32.1987C28.9307 30.3386 30.4065 28.9665 32.2429 26.0217C32.4544 26.177 32.6699 26.3283 32.8894 26.4756L36.134 28.6533C36.8364 29.1231 37.1056 30.026 36.7674 30.8029C36.3204 31.832 35.5936 32.8139 34.4824 33.989L34.0411 34.4302C32.8661 35.5414 31.8761 36.2682 30.8511 36.7112C30.0702 37.0615 29.1672 36.7923 28.6975 36.0899Z" fill="#C0C0C0"/>
<path d="M40.3869 35.9787L36.5019 31.3315L36.4537 31.3797L40.1624 36.1553C40.2547 36.0631 40.3189 35.9909 40.3869 35.9787Z" fill="#E7E7E7"/>
<path d="M35.9787 40.387L31.3315 36.5019L31.3797 36.4538L36.1513 40.1665C36.0631 40.2548 35.9909 40.319 35.9787 40.387Z" fill="#E7E7E7"/>
<path d="M17.8065 24.6694C17.328 24.1909 16.9934 23.752 16.8028 23.3207C16.8427 23.3446 16.8906 23.3604 16.9426 23.3723C16.8751 23.2165 16.8195 23.0647 16.768 22.9169C16.6135 22.4415 16.667 21.9255 16.8923 21.4769C17.2503 20.776 17.6839 20.2148 18.322 19.4811C18.4825 19.2966 18.647 19.1242 18.8194 18.9517L18.9317 18.8394C19.1002 18.6709 19.2727 18.5065 19.4491 18.354C20.1868 17.7119 20.748 17.2783 21.4529 16.9163C21.8975 16.687 22.4135 16.6415 22.8929 16.792C23.0448 16.8395 23.1925 16.8991 23.3563 16.9666C23.3484 16.9266 23.3365 16.8906 23.3207 16.8507C23.752 17.0333 24.1869 17.356 24.6534 17.8224C24.8567 18.0258 25.052 18.2451 25.2393 18.4725L18.4606 25.2513C18.2212 25.068 18.0098 24.8727 17.8065 24.6694Z" fill="#4B545A"/>
<path d="M17.8065 24.6694C17.328 24.1909 16.9934 23.752 16.8028 23.3207C16.8427 23.3446 16.8906 23.3604 16.9426 23.3723C16.8751 23.2165 16.8195 23.0647 16.768 22.9169C16.6135 22.4415 16.667 21.9255 16.8923 21.4769C17.2503 20.776 17.6839 20.2148 18.322 19.4811C18.4825 19.2966 18.647 19.1242 18.8194 18.9517L18.9317 18.8394C19.1002 18.6709 19.2727 18.5065 19.4491 18.354C20.1868 17.7119 20.748 17.2783 21.4529 16.9163C21.8975 16.687 22.4135 16.6415 22.8929 16.792C23.0448 16.8395 23.1925 16.8991 23.3563 16.9666C23.3484 16.9266 23.3365 16.8906 23.3207 16.8507C23.752 17.0333 24.1869 17.356 24.6534 17.8224C24.8567 18.0258 25.052 18.2451 25.2393 18.4725L18.4606 25.2513C18.2212 25.068 18.0098 24.8727 17.8065 24.6694Z" fill="#4388FC" fill-opacity="0.1"/>
<path d="M17.8065 24.6694C17.328 24.1909 16.9934 23.752 16.8028 23.3207C16.8427 23.3446 16.8906 23.3604 16.9426 23.3723C16.8751 23.2165 16.8195 23.0647 16.768 22.9169C16.6135 22.4415 16.667 21.9255 16.8923 21.4769C17.2503 20.776 17.6839 20.2148 18.322 19.4811C18.4825 19.2966 18.647 19.1242 18.8194 18.9517L18.9317 18.8394C19.1002 18.6709 19.2727 18.5065 19.4491 18.354C20.1868 17.7119 20.748 17.2783 21.4529 16.9163C21.8975 16.687 22.4135 16.6415 22.8929 16.792C23.0448 16.8395 23.1925 16.8991 23.3563 16.9666C23.3484 16.9266 23.3365 16.8906 23.3207 16.8507C23.752 17.0333 24.1869 17.356 24.6534 17.8224C24.8567 18.0258 25.052 18.2451 25.2393 18.4725L18.4606 25.2513C18.2212 25.068 18.0098 24.8727 17.8065 24.6694Z" fill="url(#paint0_radial_5_5167)" fill-opacity="0.77"/>
<path d="M26.1596 19.6331C25.8009 19.2583 25.4301 18.8715 25.0195 18.4448C24.9876 18.4129 24.9637 18.373 24.9519 18.3291C24.8925 18.1333 24.9449 17.9932 25.1252 17.8686C25.4136 17.7158 25.7292 17.8068 26.0961 18.1577L36.3321 27.9605C36.3401 27.9684 36.348 27.9764 36.356 27.9844C36.348 27.9844 36.336 27.9804 36.324 27.9765L35.9845 27.8695C35.9125 27.8457 35.8407 27.814 35.7728 27.7702L33.7215 26.3767C32.2688 25.3893 31.064 24.4332 30.0352 23.4365C28.4001 21.9698 27.3596 20.8892 26.1596 19.6331Z" fill="#4B545A"/>
<path d="M26.1596 19.6331C25.8009 19.2583 25.4301 18.8715 25.0195 18.4448C24.9876 18.4129 24.9637 18.373 24.9519 18.329C24.8925 18.1333 24.9449 17.9932 25.1252 17.8686C25.4136 17.7158 25.7292 17.8068 26.0961 18.1576L36.3321 27.9605C36.3401 27.9684 36.348 27.9764 36.356 27.9844C36.348 27.9844 36.336 27.9804 36.324 27.9765L35.9845 27.8695C35.9125 27.8457 35.8407 27.814 35.7728 27.7702L33.7215 26.3767C32.2688 25.3893 31.064 24.4332 30.0352 23.4365C28.4001 21.9698 27.3596 20.8892 26.1596 19.6331Z" fill="#4388FC" fill-opacity="0.1"/>
<path d="M26.1596 19.6331C25.8009 19.2583 25.4301 18.8715 25.0195 18.4448C24.9876 18.4129 24.9637 18.373 24.9519 18.329C24.8925 18.1333 24.9449 17.9932 25.1252 17.8686C25.4136 17.7158 25.7292 17.8068 26.0961 18.1576L36.3321 27.9605C36.3401 27.9684 36.348 27.9764 36.356 27.9844C36.348 27.9844 36.336 27.9804 36.324 27.9765L35.9845 27.8695C35.9125 27.8457 35.8407 27.814 35.7728 27.7702L33.7215 26.3767C32.2688 25.3893 31.064 24.4332 30.0352 23.4365C28.4001 21.9698 27.3596 20.8892 26.1596 19.6331Z" fill="url(#paint1_radial_5_5167)" fill-opacity="0.77"/>
<path d="M30.1394 22.0328C29.7352 22.15 29.4908 22.2907 29.11 22.5918L29.7441 23.1777C30.2124 23.0364 30.5965 22.9712 31.1284 22.9736L30.1394 22.0328Z" fill="#4B545A"/>
<path d="M34.7551 27.0813L35.1597 26.8441L36.328 27.9644C36.336 27.9723 36.344 27.9803 36.352 27.9883C36.344 27.9883 36.332 27.9843 36.32 27.9804L35.9804 27.8734C35.9085 27.8496 35.8366 27.8179 35.7687 27.7741L34.7551 27.0813Z" fill="#4B545A"/>
<path d="M19.6295 26.1634C19.2546 25.8046 18.8678 25.4339 18.4412 25.0233C18.4093 24.9914 18.3694 24.9675 18.3254 24.9557C18.1296 24.8963 17.9895 24.9487 17.865 25.129C17.7122 25.4174 17.8032 25.733 18.154 26.0999L27.9568 36.3359C27.9648 36.3439 27.9728 36.3518 27.9807 36.3598C27.9808 36.3518 27.9768 36.3398 27.9728 36.3278L27.8659 35.9882C27.8421 35.9163 27.8103 35.8444 27.7665 35.7766L26.3691 33.7133C25.3817 32.2606 24.4256 31.0558 23.4289 30.0271C21.9702 28.3998 20.8855 27.3634 19.6295 26.1634Z" fill="#4B545A"/>
<path d="M19.6295 26.1634C19.2547 25.8046 18.8679 25.4339 18.4412 25.0233C18.4093 24.9914 18.3694 24.9675 18.3255 24.9556C18.1297 24.8963 17.9896 24.9487 17.8651 25.129C17.7122 25.4174 17.8033 25.733 18.1541 26.0999L27.9569 36.3359C27.9649 36.3439 27.9728 36.3518 27.9808 36.3598C27.9808 36.3518 27.9769 36.3398 27.9729 36.3278L27.8659 35.9882C27.8422 35.9163 27.8104 35.8444 27.7666 35.7766L26.3692 33.7133C25.3818 32.2606 24.4256 31.0558 23.429 30.0271C21.9702 28.3998 20.8856 27.3634 19.6295 26.1634Z" fill="#4388FC" fill-opacity="0.1"/>
<path d="M19.6295 26.1634C19.2547 25.8046 18.8679 25.4339 18.4412 25.0233C18.4093 24.9914 18.3694 24.9675 18.3255 24.9556C18.1297 24.8963 17.9896 24.9487 17.8651 25.129C17.7122 25.4174 17.8033 25.733 18.1541 26.0999L27.9569 36.3359C27.9649 36.3439 27.9728 36.3518 27.9808 36.3598C27.9808 36.3518 27.9769 36.3398 27.9729 36.3278L27.8659 35.9882C27.8422 35.9163 27.8104 35.8444 27.7666 35.7766L26.3692 33.7133C25.3818 32.2606 24.4256 31.0558 23.429 30.0271C21.9702 28.3998 20.8856 27.3634 19.6295 26.1634Z" fill="url(#paint2_radial_5_5167)" fill-opacity="0.77"/>
<path d="M22.025 30.1389C22.1422 29.7347 22.2829 29.4903 22.5839 29.1095L23.1699 29.7436C23.0285 30.2119 22.9634 30.596 22.9658 31.1278L22.025 30.1389Z" fill="#4B545A"/>
<path d="M27.0738 34.7549L26.8367 35.1595L27.9569 36.3279C27.9648 36.3358 27.9728 36.3438 27.9808 36.3518C27.9808 36.3438 27.9769 36.3318 27.9729 36.3198L27.8659 35.9802C27.8422 35.9083 27.8104 35.8364 27.7666 35.7686L27.0738 34.7549Z" fill="#4B545A"/>
<path d="M35.6454 27.5468C35.5257 27.4752 35.4739 27.4153 35.4022 27.3036L35.7352 26.9707L35.9784 27.2139L35.6454 27.5468Z" fill="#594F4F"/>
<path d="M35.8544 27.2023L35.5235 26.8634C35.4877 26.8275 35.4798 26.7715 35.504 26.7234L36.0833 25.57C36.1034 25.5339 36.1514 25.5178 36.1874 25.5377C36.2433 25.5695 36.3031 25.6053 36.367 25.6611C36.4108 25.697 36.4467 25.7408 36.4786 25.7727C36.5543 25.8645 36.6019 25.9763 36.6136 26.0923C36.6213 26.1962 36.6169 26.3122 36.5685 26.4483C36.508 26.6204 36.3835 26.8088 36.2311 26.9692C36.1628 27.0454 36.0666 27.1337 35.9904 27.2019C35.9503 27.242 35.8903 27.2382 35.8544 27.2023Z" fill="#594F4F"/>
<path d="M27.5467 35.6445C27.4751 35.5248 27.4152 35.4729 27.3035 35.4013L26.9706 35.7342L27.2138 35.9774L27.5467 35.6445Z" fill="#594F4F"/>
<path d="M27.1986 35.8494L26.8597 35.5185C26.8238 35.4826 26.7678 35.4748 26.7198 35.499L25.5663 36.0783C25.5302 36.0984 25.5141 36.1464 25.534 36.1824C25.5658 36.2382 25.6016 36.2981 25.6574 36.3619C25.6933 36.4058 25.7372 36.4417 25.7691 36.4736C25.8608 36.5493 25.9726 36.5969 26.0886 36.6086C26.1925 36.6163 26.3085 36.6119 26.4446 36.5635C26.6168 36.503 26.8051 36.3785 26.9655 36.226C27.0417 36.1578 27.13 36.0616 27.1982 35.9854C27.2383 35.9453 27.2385 35.8893 27.1986 35.8494Z" fill="#594F4F"/>
<path d="M40.5442 35.5342C40.8763 34.1735 40.7515 33.0941 40.0393 31.8926L40.5178 32.371C40.8008 32.6541 40.9757 33.0215 41.0065 33.4213C41.0601 34.1969 40.9783 34.821 40.5442 35.5342Z" fill="url(#paint3_linear_5_5167)"/>
<path d="M40.5442 35.5342C40.8763 34.1735 40.7515 33.0941 40.0393 31.8926L40.5178 32.371C40.8008 32.6541 40.9757 33.0215 41.0065 33.4213C41.0601 34.1969 40.9783 34.821 40.5442 35.5342Z" fill="url(#paint4_linear_5_5167)"/>
<path d="M40.0392 31.9005L40.5136 32.3749C40.7967 32.658 40.9715 33.0254 41.0023 33.4252C41.06 34.1968 40.9781 34.8209 40.5441 35.5341C40.8761 34.1734 40.7554 33.098 40.0392 31.9005Z" fill="#D5E3F0"/>
<path d="M35.5704 40.5078C34.2098 40.8398 33.1304 40.7151 31.9288 40.0029L32.4073 40.4813C32.6904 40.7644 33.0578 40.9393 33.4576 40.9701C34.2292 41.0277 34.8573 40.9419 35.5704 40.5078Z" fill="url(#paint5_linear_5_5167)"/>
<path d="M35.5704 40.5078C34.2098 40.8398 33.1304 40.7151 31.9288 40.0029L32.4073 40.4813C32.6904 40.7644 33.0578 40.9393 33.4576 40.9701C34.2292 41.0277 34.8573 40.9419 35.5704 40.5078Z" fill="url(#paint6_linear_5_5167)"/>
<path d="M31.9329 40.0068L32.4073 40.4813C32.6904 40.7643 33.0578 40.9392 33.4576 40.97C34.2332 41.0316 34.8613 40.9458 35.5745 40.5117C34.2098 40.8397 33.1344 40.719 31.9329 40.0068Z" fill="#D5E3F0"/>
<path d="M20.1669 14.9717C21.2526 14.3326 22.0925 14.2981 22.9632 14.6394C23.2068 14.7466 23.4265 14.8459 23.6301 14.9453L23.526 15.0016C23.1735 15.1866 22.7615 15.2079 22.3941 15.065C21.7989 14.8309 21.431 14.84 20.6064 15.1064C20.4423 15.1589 20.2665 15.1034 20.1669 14.9717Z" fill="#D8394C"/>
<path d="M14.9725 20.167C14.3334 21.2526 14.2989 22.0925 14.6402 22.9633C14.7474 23.2069 14.8467 23.4265 14.9461 23.6302L15.0024 23.5261C15.1874 23.1736 15.2086 22.7616 15.0658 22.3941C14.8316 21.799 14.8407 21.4311 15.1072 20.6065C15.1596 20.4423 15.1042 20.2666 14.9725 20.167Z" fill="#D8394C"/>
<path d="M33.0643 33.4609C31.8612 34.6003 30.8873 35.295 29.9183 35.7138C29.4978 35.8951 29.026 35.8885 28.6146 35.7018L26.644 32.7604C26.5245 32.5848 26.4011 32.4052 26.2777 32.2336C27.8043 31.2333 28.8385 30.4224 29.7169 29.544C30.6074 28.6535 31.4063 27.6233 32.2823 26.229C32.4538 26.3525 32.6294 26.4799 32.809 26.5954L35.7464 28.57C35.9331 28.9814 35.9397 29.4532 35.7584 29.8737C35.3356 30.8467 34.6409 31.8126 33.5055 33.0197L33.0643 33.4609ZM33.168 33.5646L33.6092 33.1234C34.7204 31.9483 35.4472 30.9584 35.8942 29.9373C36.1036 29.4568 36.0812 28.921 35.8626 28.4777L32.8854 26.4792C32.6658 26.3319 32.4504 26.1805 32.2389 26.0252C31.3428 27.4636 30.5318 28.5217 29.6052 29.4483C28.6305 30.423 27.5283 31.2461 26.0578 32.2063C26.2131 32.4178 26.3644 32.6333 26.5117 32.8528L28.5063 35.8261C28.9535 36.0407 29.4853 36.0671 29.9658 35.8577C31.003 35.4026 31.9929 34.6758 33.168 33.5646Z" fill="#1D1F24"/>
<path d="M28.5143 35.8182L26.5197 32.8449C26.3724 32.6254 26.2211 32.41 26.0658 32.1985C28.9307 30.3383 30.4064 28.9662 32.2428 26.0214C32.4543 26.1767 32.6698 26.328 32.8893 26.4753L35.8626 28.4699C36.0772 28.9172 36.1036 29.4489 35.8942 29.9295C35.4472 30.9585 34.7204 31.9405 33.6092 33.1156L33.1679 33.5568C31.9929 34.668 31.0029 35.3948 29.9778 35.8378C29.4933 36.0592 28.9615 36.0328 28.5143 35.8182Z" fill="#4B545A"/>
<path d="M28.5143 35.8182L26.5197 32.845C26.3724 32.6254 26.2211 32.41 26.0658 32.1985C28.9307 30.3383 30.4064 28.9662 32.2428 26.0214C32.4543 26.1767 32.6698 26.328 32.8893 26.4753L35.8626 28.4699C36.0772 28.9172 36.1036 29.4489 35.8942 29.9295C35.4472 30.9585 34.7204 31.9405 33.6092 33.1156L33.1679 33.5568C31.9929 34.668 31.0029 35.3948 29.9778 35.8378C29.4933 36.0592 28.9615 36.0328 28.5143 35.8182Z" fill="#4388FC" fill-opacity="0.1"/>
<path d="M28.5143 35.8182L26.5197 32.845C26.3724 32.6254 26.2211 32.41 26.0658 32.1985C28.9307 30.3383 30.4064 28.9662 32.2428 26.0214C32.4543 26.1767 32.6698 26.328 32.8893 26.4753L35.8626 28.4699C36.0772 28.9172 36.1036 29.4489 35.8942 29.9295C35.4472 30.9585 34.7204 31.9405 33.6092 33.1156L33.1679 33.5568C31.9929 34.668 31.0029 35.3948 29.9778 35.8378C29.4933 36.0592 28.9615 36.0328 28.5143 35.8182Z" fill="url(#paint7_radial_5_5167)" fill-opacity="0.77"/>
<path d="M28.6974 36.0899C29.1672 36.7923 30.0702 37.0615 30.847 36.7232C31.8761 36.2762 32.858 35.5495 34.0371 34.4422L34.4783 34.001C35.5895 32.8259 36.3163 31.836 36.7633 30.8149C37.1016 30.038 36.8323 29.1351 36.1299 28.6653L35.8585 28.4822C36.0731 28.9294 36.0995 29.4612 35.8901 29.9417C35.4432 30.9708 34.7164 31.9528 33.6051 33.1278L33.1639 33.569C31.9888 34.6803 30.9989 35.4071 29.9738 35.8501C29.4933 36.0595 28.9575 36.0371 28.5143 35.8185L28.6974 36.0899Z" fill="#4B545A"/>
<path d="M36.0826 40.4182C36.0786 40.4142 36.0867 40.3901 36.1308 40.346L40.3425 36.1344C40.3866 36.0903 40.4146 36.0862 40.4146 36.0862C40.4186 36.0902 40.4345 36.1221 40.4182 36.2021L40.4061 36.2622C40.341 36.6223 40.2922 36.8864 40.1351 37.2507C39.9143 37.5513 39.6614 37.852 39.3766 38.1608L38.1612 39.3762C37.8524 39.661 37.5518 39.9139 37.2512 40.1347C37.2512 40.1347 37.2512 40.1347 37.2472 40.1387C36.8828 40.2958 36.6187 40.3446 36.2586 40.4096L36.1986 40.4218C36.1185 40.438 36.0866 40.4221 36.0826 40.4182Z" fill="#4B545A"/>
<path d="M25.6335 19.0589L19.0553 25.6371C19.0553 25.6371 18.5332 25.2212 18.2991 24.4397C17.7844 22.7216 22.9383 17.6874 24.4561 18.2826C25.2153 18.5804 25.6335 19.0589 25.6335 19.0589Z" fill="#C0C0C0"/>
</g>
<defs>
<filter id="filter0_d_5_5167" x="8" y="12" width="40.1275" height="40.127" filterUnits="userSpaceOnUse" color-interpolation-filters="sRGB">
<feFlood flood-opacity="0" result="BackgroundImageFix"/>
<feColorMatrix in="SourceAlpha" type="matrix" values="0 0 0 0 0 0 0 0 0 0 0 0 0 0 0 0 0 0 127 0" result="hardAlpha"/>
<feOffset dy="4"/>
<feGaussianBlur stdDeviation="2"/>
<feColorMatrix type="matrix" values="0 0 0 0 0 0 0 0 0 0 0 0 0 0 0 0 0 0 0.3 0"/>
<feBlend mode="normal" in2="BackgroundImageFix" result="effect1_dropShadow_5_5167"/>
<feBlend mode="normal" in="SourceGraphic" in2="effect1_dropShadow_5_5167" result="shape"/>
</filter>
<radialGradient id="paint0_radial_5_5167" cx="0" cy="0" r="1" gradientUnits="userSpaceOnUse" gradientTransform="translate(21.8848 22.2497) rotate(-135) scale(4.82092 16.0254)">
<stop stop-color="white" stop-opacity="0.8"/>
<stop offset="1" stop-color="white" stop-opacity="0.01"/>
</radialGradient>
<radialGradient id="paint1_radial_5_5167" cx="0" cy="0" r="1" gradientUnits="userSpaceOnUse" gradientTransform="translate(24.3589 16.9478) rotate(-134.966) scale(16.5107 2.11107)">
<stop stop-color="white" stop-opacity="0.8"/>
<stop offset="1" stop-color="white" stop-opacity="0.01"/>
</radialGradient>
<radialGradient id="paint2_radial_5_5167" cx="0" cy="0" r="1" gradientUnits="userSpaceOnUse" gradientTransform="translate(16.9314 24.3755) rotate(-134.966) scale(16.5107 2.11517)">
<stop stop-color="white" stop-opacity="0.8"/>
<stop offset="1" stop-color="white" stop-opacity="0.01"/>
</radialGradient>
<linearGradient id="paint3_linear_5_5167" x1="41.0758" y1="32.9337" x2="39.5079" y2="34.5015" gradientUnits="userSpaceOnUse">
<stop offset="0.1548" stop-color="#A1A1A1"/>
<stop offset="0.9205" stop-color="white"/>
</linearGradient>
<linearGradient id="paint4_linear_5_5167" x1="41.0758" y1="32.9337" x2="39.5079" y2="34.5015" gradientUnits="userSpaceOnUse">
<stop stop-color="#333333"/>
<stop offset="0.1883"/>
<stop offset="0.3849" stop-color="#333333"/>
<stop offset="0.5983"/>
<stop offset="0.8033" stop-color="#333333"/>
<stop offset="1"/>
</linearGradient>
<linearGradient id="paint5_linear_5_5167" x1="32.9672" y1="41.0421" x2="34.5351" y2="39.4742" gradientUnits="userSpaceOnUse">
<stop offset="0.1548" stop-color="#A1A1A1"/>
<stop offset="0.9205" stop-color="white"/>
</linearGradient>
<linearGradient id="paint6_linear_5_5167" x1="32.9672" y1="41.0421" x2="34.5351" y2="39.4742" gradientUnits="userSpaceOnUse">
<stop stop-color="#333333"/>
<stop offset="0.1883"/>
<stop offset="0.3849" stop-color="#333333"/>
<stop offset="0.5983"/>
<stop offset="0.8033" stop-color="#333333"/>
<stop offset="1"/>
</linearGradient>
<radialGradient id="paint7_radial_5_5167" cx="0" cy="0" r="1" gradientUnits="userSpaceOnUse" gradientTransform="translate(28.7703 28.8321) rotate(-134.342) scale(6.53932 16.3827)">
<stop stop-color="white" stop-opacity="0.8"/>
<stop offset="1" stop-color="white" stop-opacity="0.01"/>
</radialGradient>
</defs>
</svg>
