<svg width="159" height="63" viewBox="0 0 159 63" fill="none" xmlns="http://www.w3.org/2000/svg">
<g filter="url(#filter0_iii_342_5141)">
<path d="M123.705 9.84461C129.587 10.0135 134.673 13.9224 136.478 19.5336L136.606 19.9297C139.244 28.1311 139.065 36.9652 136.098 45.0229C134.138 50.3452 129.083 53.8803 123.402 53.8915C113.426 53.9111 96.4583 53.9278 76.9741 53.8772C60.7256 53.8349 44.4004 53.3095 33.78 52.8876C26.8191 52.6111 21.0429 47.4309 19.9241 40.549L19.5449 38.2167C18.7343 33.2307 18.8382 28.1436 19.8513 23.2046L20.0628 22.1739C21.4567 15.3787 27.4024 10.4994 34.3443 10.4221C43.9368 10.3153 58.7938 10.1066 76.9181 9.70903C96.9204 9.27028 113.737 9.55846 123.705 9.84461Z" fill="url(#paint0_linear_342_5141)"/>
</g>
<path d="M102.028 14.4611C106.457 13.5335 111.028 16.2135 112.104 20.6234L112.191 20.9832C113.942 28.162 113.803 35.66 111.788 42.7434C110.594 46.9409 106.102 49.3171 101.844 48.3027C95.0974 46.6957 84.5264 44.7839 72.4797 44.8063C62.471 44.8248 52.3917 46.2408 45.3181 47.5188C40.1809 48.447 35.1131 44.9199 34.4806 39.7262L34.3758 38.8658C33.7162 33.4497 33.8175 27.9731 34.677 22.5955C35.4556 17.7237 40.5626 14.6671 45.3981 15.7003C51.7981 17.0678 61.19 18.4065 72.4797 18.024C84.7863 17.607 95.2734 15.876 102.028 14.4611Z" fill="#A7A5A5"/>
<path d="M135.533 23.2474C138.13 28.647 138.182 34.9643 135.636 40.3558C132.633 46.7135 126.299 50.8056 119.253 50.9075C115.892 50.9561 111.978 51.0091 107.764 51.0615C107.617 51.0633 107.554 50.8667 107.67 50.7764C107.788 50.6856 107.705 50.5039 107.557 50.5196C106.651 50.616 105.719 50.5752 104.793 50.3802C97.3209 48.8068 85.1363 46.8324 71.1593 46.8685C60.1199 46.897 49.0029 48.4745 41.1143 49.9183C39.6798 50.1808 38.2491 50.1383 36.8951 49.8398C36.8511 49.8301 36.8231 49.8852 36.8577 49.9141C36.8898 49.9411 36.8687 49.9936 36.8269 49.991C34.3057 49.8328 32.1421 49.6891 30.4737 49.5716C28.2044 49.4117 26.2593 47.9119 25.4952 45.7649L25.1642 44.8333C21.9291 35.743 22.0555 25.8134 25.5216 16.8509C26.2728 14.9087 28.0695 13.5841 30.1515 13.4603C32.0036 13.3501 34.5466 13.2037 37.6144 13.0373C37.7952 13.0275 37.8711 13.2822 37.7202 13.3823C37.5718 13.4806 37.6667 13.7043 37.8436 13.6846C38.9486 13.5614 40.0841 13.608 41.2061 13.8479C48.35 15.3758 58.7301 16.8443 71.1739 16.4065C85.378 15.9069 97.4146 13.8149 104.927 12.1741C105.295 12.0936 105.665 12.0387 106.034 12.0067C106.055 12.0049 106.059 11.9763 106.039 11.9695C106.017 11.9623 106.023 11.9307 106.046 11.9317C111.161 12.137 115.879 12.3733 119.79 12.5911C126.565 12.9684 132.586 17.1181 135.533 23.2474ZM113.19 42.9368C115.226 35.9688 115.366 28.5718 113.594 21.5081L113.506 21.1565C112.457 16.9742 108.131 14.436 103.92 15.304C97.2194 16.6854 86.6217 18.4152 74.1436 18.8235C62.6808 19.1987 53.1846 17.8386 46.8136 16.4856C42.1967 15.5052 37.337 18.4208 36.5743 23.0686C35.7022 28.3832 35.6006 33.8003 36.2716 39.1536L36.3761 39.9886C36.9968 44.9403 41.8184 48.3021 46.7218 47.431C53.7741 46.1776 63.998 44.7554 74.1485 44.7395C86.3498 44.7205 97.0295 46.6417 103.72 48.2151C107.768 49.167 112.026 46.9165 113.19 42.9368Z" fill="#181818"/>
<g filter="url(#filter1_di_342_5141)">
<path d="M109.42 12.6978C109.804 12.5919 110.201 12.8249 110.296 13.2125L114.819 31.758C114.848 31.8747 114.846 31.9966 114.813 32.1118L109.791 49.7634C109.683 50.1444 109.281 50.3583 108.903 50.2371C105.593 49.1775 90.7296 44.7724 72.4797 44.8063C56.3804 44.8361 40.0984 48.4817 36.437 49.3525C36.0298 49.4494 35.6305 49.1674 35.5797 48.7508L33.3933 30.7985C33.3855 30.7343 33.3867 30.6693 33.3969 30.6054L36.0497 14.0062C36.1187 13.5743 36.5593 13.3093 36.9749 13.4497C40.2935 14.571 53.7847 18.6574 72.4797 18.024C91.4623 17.3807 106.116 13.6114 109.42 12.6978Z" fill="url(#paint1_linear_342_5141)"/>
</g>
<g filter="url(#filter2_d_342_5141)">
<g filter="url(#filter3_d_342_5141)">
<path d="M126.41 49.9746C129.592 48.4924 130.45 46.3174 130.494 44.832C130.509 44.341 129.95 44.158 129.56 44.4577C126.441 46.8556 121.527 48.9929 118.088 50.2621C117.447 50.4985 117.517 51.3414 118.198 51.3794C120.475 51.5064 123.602 51.2828 126.41 49.9746Z" fill="white"/>
<path d="M129.274 45.9034C126.738 47.6511 123.434 49.2107 120.605 50.3621C122.169 50.257 123.883 49.9457 125.495 49.2796L125.988 49.0637C128.017 48.1182 128.914 46.9119 129.274 45.9034Z" stroke="white" stroke-width="2.00999" stroke-linecap="round"/>
</g>
</g>
<g filter="url(#filter4_d_342_5141)">
<path d="M126.234 12.8556C129.612 14.338 130.537 16.611 130.599 18.1571C130.619 18.6477 130.063 18.8418 129.668 18.5502C126.341 16.0949 121.091 13.9588 117.465 12.7184C116.819 12.4974 116.869 11.6504 117.549 11.5937C119.925 11.3957 123.238 11.541 126.234 12.8556Z" fill="white"/>
<path d="M129.386 17.13C126.627 15.2972 122.989 13.6903 119.931 12.5364C121.629 12.5904 123.519 12.8698 125.304 13.5593L125.83 13.7755C128.055 14.7519 129.013 16.0538 129.386 17.13Z" stroke="white" stroke-width="2.00999" stroke-linecap="round"/>
</g>
<g filter="url(#filter5_di_342_5141)">
<path d="M105.506 11.9626C104.968 11.9792 104.426 12.0438 103.886 12.1628C96.4781 13.7972 84.7112 15.8588 70.8459 16.3542C58.7495 16.7864 48.634 15.3601 41.6105 13.8533C41.0495 13.7329 40.4846 13.6621 39.9221 13.6345C40.9107 13.1995 41.9898 12.9341 43.1232 12.8767C50.0547 12.526 61.4821 12.0054 75.4201 11.5876C87.8116 11.2162 98.3528 11.5598 105.506 11.9626ZM117.338 19.7908C119.47 27.8767 119.31 36.3824 116.875 44.3513L116.577 45.3259C115.595 48.5417 112.713 50.7882 109.348 50.9158C102.424 51.178 89.727 51.5637 74.9748 51.5671C62.9208 51.57 50.7701 50.845 43.1584 50.282C42.4327 50.2283 41.7301 50.0933 41.0588 49.8874C41.2163 49.8656 41.3747 49.8423 41.5324 49.8132C49.2805 48.3838 60.0938 46.8443 70.8322 46.8161C84.4787 46.7804 96.3887 48.722 103.76 50.2888C108.128 51.2172 112.635 48.7469 113.88 44.4724L114.172 43.4675C116.334 36.0454 116.535 28.1766 114.757 20.6267L114.254 18.49C113.432 14.9992 110.466 12.5574 107.074 12.0544C108.114 12.1184 109.067 12.1829 109.928 12.2449C113.268 12.485 116.039 14.864 116.894 18.1062L117.338 19.7908Z" fill="url(#paint2_linear_342_5141)"/>
</g>
<g filter="url(#filter6_iii_342_5141)">
<path d="M133.522 22.9014C136.034 28.3165 136.084 34.5869 133.622 39.9883C130.59 46.6422 124.016 50.9505 116.687 51.0596C113.261 51.1106 109.292 51.1646 105.04 51.2187C105.156 51.1393 105.271 51.0577 105.382 50.9717C104.428 51.0809 103.443 51.0381 102.466 50.8252C95.0493 49.2087 83.0998 47.2142 69.4141 47.251C58.8413 47.2795 48.1964 48.8048 40.4434 50.2549C40.2106 50.2984 39.9775 50.333 39.7451 50.3613C38.3053 50.2746 36.9399 50.1903 35.667 50.1074C35.592 50.0887 35.517 50.07 35.4424 50.0498C35.4614 50.0661 35.4819 50.0805 35.501 50.0967C33.2194 49.9476 31.241 49.8122 29.6729 49.6982C27.2709 49.5237 25.2193 47.919 24.4356 45.6367L24.1123 44.6953C20.9301 35.4273 21.0545 25.3657 24.4639 16.2285C25.2341 14.1648 27.1285 12.7486 29.3311 12.6133C31.1349 12.5025 33.5541 12.358 36.4463 12.1953C35.8529 12.5942 35.3072 13.0563 34.8155 13.5713C36.6206 13.0098 38.5876 12.8841 40.5117 13.2988C47.5515 14.8161 57.5386 16.2139 69.4287 15.7773C83.3334 15.2668 95.1397 13.1483 102.592 11.4619C103.345 11.2915 104.103 11.2259 104.85 11.2529C104.735 11.1887 104.618 11.1284 104.499 11.0703C109.207 11.2679 113.567 11.493 117.25 11.7031C124.299 12.1054 130.542 16.4796 133.522 22.9014ZM111.092 42.7217C113.065 35.7253 113.199 28.3247 111.482 21.2334L111.397 20.8779C110.33 16.4729 105.76 13.794 101.34 14.7227C94.6856 16.1209 84.4116 17.818 72.3682 18.2266C61.3245 18.6011 52.1247 17.2895 45.8262 15.9395C41.0061 14.9064 35.9097 17.9526 35.1406 22.8096C34.3009 28.1136 34.2026 33.5142 34.8487 38.8564L34.9522 39.71C35.5786 44.8895 40.6378 48.4086 45.7588 47.4805C52.7164 46.2195 62.579 44.8333 72.3731 44.8174C84.1661 44.7983 94.5235 46.6772 101.171 48.2686C105.422 49.286 109.909 46.914 111.092 42.7217Z" fill="url(#paint3_linear_342_5141)"/>
</g>
<g filter="url(#filter7_ii_342_5141)">
<path d="M89.2249 16.6104C92.7691 25.8844 92.8269 36.1297 89.3874 45.4431L89.2675 45.7677C89.2675 45.7677 83.1326 44.9563 70.0951 44.9563C57.1385 45.2676 51.3189 46.3917 51.3189 46.3917L51.0761 45.28C49.0234 35.8805 49.134 26.1374 51.3994 16.7869C51.3994 16.7869 61.3666 17.9623 70.1071 17.8956C77.6182 17.8382 89.2249 16.6104 89.2249 16.6104Z" fill="url(#paint4_linear_342_5141)"/>
</g>
<defs>
<filter id="filter0_iii_342_5141" x="19.0059" y="6.67618" width="121.561" height="47.9368" filterUnits="userSpaceOnUse" color-interpolation-filters="sRGB">
<feFlood flood-opacity="0" result="BackgroundImageFix"/>
<feBlend mode="normal" in="SourceGraphic" in2="BackgroundImageFix" result="shape"/>
<feColorMatrix in="SourceAlpha" type="matrix" values="0 0 0 0 0 0 0 0 0 0 0 0 0 0 0 0 0 0 127 0" result="hardAlpha"/>
<feOffset dx="2.10542" dy="-2.80722"/>
<feGaussianBlur stdDeviation="8.42167"/>
<feComposite in2="hardAlpha" operator="arithmetic" k2="-1" k3="1"/>
<feColorMatrix type="matrix" values="0 0 0 0 0 0 0 0 0 0 0 0 0 0 0 0 0 0 0.07 0"/>
<feBlend mode="normal" in2="shape" result="effect1_innerShadow_342_5141"/>
<feColorMatrix in="SourceAlpha" type="matrix" values="0 0 0 0 0 0 0 0 0 0 0 0 0 0 0 0 0 0 127 0" result="hardAlpha"/>
<feOffset dy="-0.350903"/>
<feGaussianBlur stdDeviation="0.701806"/>
<feComposite in2="hardAlpha" operator="arithmetic" k2="-1" k3="1"/>
<feColorMatrix type="matrix" values="0 0 0 0 0 0 0 0 0 0 0 0 0 0 0 0 0 0 0.25 0"/>
<feBlend mode="normal" in2="effect1_innerShadow_342_5141" result="effect2_innerShadow_342_5141"/>
<feColorMatrix in="SourceAlpha" type="matrix" values="0 0 0 0 0 0 0 0 0 0 0 0 0 0 0 0 0 0 127 0" result="hardAlpha"/>
<feOffset dy="1.40361"/>
<feGaussianBlur stdDeviation="0.350903"/>
<feComposite in2="hardAlpha" operator="arithmetic" k2="-1" k3="1"/>
<feColorMatrix type="matrix" values="0 0 0 0 0 0 0 0 0 0 0 0 0 0 0 0 0 0 0.25 0"/>
<feBlend mode="normal" in2="effect2_innerShadow_342_5141" result="effect3_innerShadow_342_5141"/>
</filter>
<filter id="filter1_di_342_5141" x="32.0487" y="12.6719" width="83.1366" height="38.9396" filterUnits="userSpaceOnUse" color-interpolation-filters="sRGB">
<feFlood flood-opacity="0" result="BackgroundImageFix"/>
<feColorMatrix in="SourceAlpha" type="matrix" values="0 0 0 0 0 0 0 0 0 0 0 0 0 0 0 0 0 0 127 0" result="hardAlpha"/>
<feOffset dy="0.346432"/>
<feGaussianBlur stdDeviation="0.173216"/>
<feColorMatrix type="matrix" values="0 0 0 0 0.925374 0 0 0 0 0.925374 0 0 0 0 0.925374 0 0 0 0.37 0"/>
<feBlend mode="normal" in2="BackgroundImageFix" result="effect1_dropShadow_342_5141"/>
<feBlend mode="normal" in="SourceGraphic" in2="effect1_dropShadow_342_5141" result="shape"/>
<feColorMatrix in="SourceAlpha" type="matrix" values="0 0 0 0 0 0 0 0 0 0 0 0 0 0 0 0 0 0 127 0" result="hardAlpha"/>
<feOffset dx="-1.34" dy="1.67499"/>
<feGaussianBlur stdDeviation="0.669998"/>
<feComposite in2="hardAlpha" operator="arithmetic" k2="-1" k3="1"/>
<feColorMatrix type="matrix" values="0 0 0 0 0 0 0 0 0 0 0 0 0 0 0 0 0 0 0.8 0"/>
<feBlend mode="normal" in2="shape" result="effect2_innerShadow_342_5141"/>
</filter>
<filter id="filter2_d_342_5141" x="116.976" y="42.9725" width="14.1886" height="8.43765" filterUnits="userSpaceOnUse" color-interpolation-filters="sRGB">
<feFlood flood-opacity="0" result="BackgroundImageFix"/>
<feColorMatrix in="SourceAlpha" type="matrix" values="0 0 0 0 0 0 0 0 0 0 0 0 0 0 0 0 0 0 127 0" result="hardAlpha"/>
<feOffset dy="-0.669998"/>
<feGaussianBlur stdDeviation="0.334999"/>
<feColorMatrix type="matrix" values="0 0 0 0 0 0 0 0 0 0 0 0 0 0 0 0 0 0 0.25 0"/>
<feBlend mode="normal" in2="BackgroundImageFix" result="effect1_dropShadow_342_5141"/>
<feBlend mode="normal" in="SourceGraphic" in2="effect1_dropShadow_342_5141" result="shape"/>
</filter>
<filter id="filter3_d_342_5141" x="117.311" y="44.3125" width="13.5186" height="7.76765" filterUnits="userSpaceOnUse" color-interpolation-filters="sRGB">
<feFlood flood-opacity="0" result="BackgroundImageFix"/>
<feColorMatrix in="SourceAlpha" type="matrix" values="0 0 0 0 0 0 0 0 0 0 0 0 0 0 0 0 0 0 127 0" result="hardAlpha"/>
<feOffset dy="0.334999"/>
<feGaussianBlur stdDeviation="0.167499"/>
<feColorMatrix type="matrix" values="0 0 0 0 1 0 0 0 0 1 0 0 0 0 1 0 0 0 0.25 0"/>
<feBlend mode="normal" in2="BackgroundImageFix" result="effect1_dropShadow_342_5141"/>
<feBlend mode="normal" in="SourceGraphic" in2="effect1_dropShadow_342_5141" result="shape"/>
</filter>
<filter id="filter4_d_342_5141" x="116.339" y="10.1815" width="14.9308" height="8.50601" filterUnits="userSpaceOnUse" color-interpolation-filters="sRGB">
<feFlood flood-opacity="0" result="BackgroundImageFix"/>
<feColorMatrix in="SourceAlpha" type="matrix" values="0 0 0 0 0 0 0 0 0 0 0 0 0 0 0 0 0 0 127 0" result="hardAlpha"/>
<feOffset dy="-0.669998"/>
<feGaussianBlur stdDeviation="0.334999"/>
<feColorMatrix type="matrix" values="0 0 0 0 0 0 0 0 0 0 0 0 0 0 0 0 0 0 0.25 0"/>
<feBlend mode="normal" in2="BackgroundImageFix" result="effect1_dropShadow_342_5141"/>
<feBlend mode="normal" in="SourceGraphic" in2="effect1_dropShadow_342_5141" result="shape"/>
</filter>
<filter id="filter5_di_342_5141" x="38.5819" y="11.4287" width="80.5917" height="41.4787" filterUnits="userSpaceOnUse" color-interpolation-filters="sRGB">
<feFlood flood-opacity="0" result="BackgroundImageFix"/>
<feColorMatrix in="SourceAlpha" type="matrix" values="0 0 0 0 0 0 0 0 0 0 0 0 0 0 0 0 0 0 127 0" result="hardAlpha"/>
<feOffset dy="0.346432"/>
<feGaussianBlur stdDeviation="0.173216"/>
<feColorMatrix type="matrix" values="0 0 0 0 0.925374 0 0 0 0 0.925374 0 0 0 0 0.925374 0 0 0 0.37 0"/>
<feBlend mode="normal" in2="BackgroundImageFix" result="effect1_dropShadow_342_5141"/>
<feBlend mode="normal" in="SourceGraphic" in2="effect1_dropShadow_342_5141" result="shape"/>
<feColorMatrix in="SourceAlpha" type="matrix" values="0 0 0 0 0 0 0 0 0 0 0 0 0 0 0 0 0 0 127 0" result="hardAlpha"/>
<feOffset dx="-1.34" dy="1.67499"/>
<feGaussianBlur stdDeviation="0.669998"/>
<feComposite in2="hardAlpha" operator="arithmetic" k2="-1" k3="1"/>
<feColorMatrix type="matrix" values="0 0 0 0 0 0 0 0 0 0 0 0 0 0 0 0 0 0 0.8 0"/>
<feBlend mode="normal" in2="shape" result="effect2_innerShadow_342_5141"/>
</filter>
<filter id="filter6_iii_342_5141" x="21.8135" y="10.3685" width="113.624" height="42.2539" filterUnits="userSpaceOnUse" color-interpolation-filters="sRGB">
<feFlood flood-opacity="0" result="BackgroundImageFix"/>
<feBlend mode="normal" in="SourceGraphic" in2="BackgroundImageFix" result="shape"/>
<feColorMatrix in="SourceAlpha" type="matrix" values="0 0 0 0 0 0 0 0 0 0 0 0 0 0 0 0 0 0 127 0" result="hardAlpha"/>
<feOffset dy="2.10542"/>
<feGaussianBlur stdDeviation="0.701806"/>
<feComposite in2="hardAlpha" operator="arithmetic" k2="-1" k3="1"/>
<feColorMatrix type="matrix" values="0 0 0 0 0.00392157 0 0 0 0 0.00392157 0 0 0 0 0.00392157 0 0 0 0.2 0"/>
<feBlend mode="normal" in2="shape" result="effect1_innerShadow_342_5141"/>
<feColorMatrix in="SourceAlpha" type="matrix" values="0 0 0 0 0 0 0 0 0 0 0 0 0 0 0 0 0 0 127 0" result="hardAlpha"/>
<feOffset dy="-0.350903"/>
<feGaussianBlur stdDeviation="0.701806"/>
<feComposite in2="hardAlpha" operator="arithmetic" k2="-1" k3="1"/>
<feColorMatrix type="matrix" values="0 0 0 0 0 0 0 0 0 0 0 0 0 0 0 0 0 0 0.25 0"/>
<feBlend mode="normal" in2="effect1_innerShadow_342_5141" result="effect2_innerShadow_342_5141"/>
<feColorMatrix in="SourceAlpha" type="matrix" values="0 0 0 0 0 0 0 0 0 0 0 0 0 0 0 0 0 0 127 0" result="hardAlpha"/>
<feOffset dy="-0.701806"/>
<feGaussianBlur stdDeviation="0.701806"/>
<feComposite in2="hardAlpha" operator="arithmetic" k2="-1" k3="1"/>
<feColorMatrix type="matrix" values="0 0 0 0 1 0 0 0 0 1 0 0 0 0 1 0 0 0 0.25 0"/>
<feBlend mode="normal" in2="effect2_innerShadow_342_5141" result="effect3_innerShadow_342_5141"/>
</filter>
<filter id="filter7_ii_342_5141" x="49.6143" y="13.8031" width="44.4169" height="32.5885" filterUnits="userSpaceOnUse" color-interpolation-filters="sRGB">
<feFlood flood-opacity="0" result="BackgroundImageFix"/>
<feBlend mode="normal" in="SourceGraphic" in2="BackgroundImageFix" result="shape"/>
<feColorMatrix in="SourceAlpha" type="matrix" values="0 0 0 0 0 0 0 0 0 0 0 0 0 0 0 0 0 0 127 0" result="hardAlpha"/>
<feOffset dx="2.10542" dy="-2.80722"/>
<feGaussianBlur stdDeviation="8.42167"/>
<feComposite in2="hardAlpha" operator="arithmetic" k2="-1" k3="1"/>
<feColorMatrix type="matrix" values="0 0 0 0 0 0 0 0 0 0 0 0 0 0 0 0 0 0 0.07 0"/>
<feBlend mode="normal" in2="shape" result="effect1_innerShadow_342_5141"/>
<feColorMatrix in="SourceAlpha" type="matrix" values="0 0 0 0 0 0 0 0 0 0 0 0 0 0 0 0 0 0 127 0" result="hardAlpha"/>
<feOffset dy="-0.350903"/>
<feGaussianBlur stdDeviation="0.701806"/>
<feComposite in2="hardAlpha" operator="arithmetic" k2="-1" k3="1"/>
<feColorMatrix type="matrix" values="0 0 0 0 0 0 0 0 0 0 0 0 0 0 0 0 0 0 0.25 0"/>
<feBlend mode="normal" in2="effect1_innerShadow_342_5141" result="effect2_innerShadow_342_5141"/>
</filter>
<linearGradient id="paint0_linear_342_5141" x1="23.7779" y1="25.5376" x2="38.5768" y2="-14.5099" gradientUnits="userSpaceOnUse">
<stop stop-color="#3D3D3D"/>
<stop offset="0.628054" stop-color="#737373"/>
<stop offset="1" stop-color="#B8B8B8"/>
</linearGradient>
<linearGradient id="paint1_linear_342_5141" x1="-122.514" y1="44.7812" x2="-79.9777" y2="-45.6374" gradientUnits="userSpaceOnUse">
<stop stop-color="#E8EAE9"/>
<stop offset="0.498386" stop-color="#707072"/>
<stop offset="1" stop-color="#2F3032"/>
</linearGradient>
<linearGradient id="paint2_linear_342_5141" x1="-110.822" y1="50.0373" x2="-66.2887" y2="-42.7438" gradientUnits="userSpaceOnUse">
<stop stop-color="#E8EAE9"/>
<stop offset="0.498386" stop-color="#707072"/>
<stop offset="1" stop-color="#2F3032"/>
</linearGradient>
<linearGradient id="paint3_linear_342_5141" x1="26.8118" y1="26.9142" x2="38.2114" y2="-8.41787" gradientUnits="userSpaceOnUse">
<stop stop-color="#3D3D3D"/>
<stop offset="0.628054" stop-color="#737373"/>
<stop offset="1" stop-color="#B8B8B8"/>
</linearGradient>
<linearGradient id="paint4_linear_342_5141" x1="54.0598" y1="41.0603" x2="99.021" y2="9.08777" gradientUnits="userSpaceOnUse">
<stop stop-color="#3D3D3D"/>
<stop offset="0.287417" stop-color="#4D4D4D"/>
<stop offset="0.432494" stop-color="#585858"/>
<stop offset="0.682295" stop-color="#737373"/>
<stop offset="1" stop-color="#A8A8A8"/>
</linearGradient>
</defs>
</svg>
