<svg width="34" height="34" viewBox="0 0 34 34" fill="none" xmlns="http://www.w3.org/2000/svg">
<g clip-path="url(#clip0_5_5258)">
<path d="M23.9904 14.9805V18.0093C23.9904 19.8837 23.2458 21.6813 21.9204 23.0067C20.595 24.332 18.7975 25.0766 16.9231 25.0766C15.0487 25.0766 13.2511 24.332 11.9257 23.0067C10.6004 21.6813 9.85578 19.8837 9.85578 18.0093V14.9805H7.83655V18.0093C7.83761 20.2437 8.66186 22.3993 10.1518 24.0643C11.6418 25.7293 13.693 26.787 15.9135 27.0353V29.1151H11.875V31.1343H21.9712V29.1151H17.9327V27.0353C20.1532 26.787 22.2044 25.7293 23.6944 24.0643C25.1843 22.3993 26.0086 20.2437 26.0096 18.0093V14.9805H23.9904Z" fill="white"/>
<path d="M16.9231 23.0575C18.2619 23.0575 19.5459 22.5257 20.4926 21.579C21.4393 20.6323 21.9712 19.3483 21.9712 18.0095V7.91331C21.9712 6.57448 21.4393 5.29048 20.4926 4.34378C19.5459 3.39708 18.2619 2.86523 16.9231 2.86523C15.5842 2.86523 14.3002 3.39708 13.3535 4.34378C12.4068 5.29048 11.875 6.57448 11.875 7.91331V18.0095C11.875 19.3483 12.4068 20.6323 13.3535 21.579C14.3002 22.5257 15.5842 23.0575 16.9231 23.0575Z" fill="white"/>
</g>
<defs>
<clipPath id="clip0_5_5258">
<rect width="32.3077" height="32.3077" fill="white" transform="translate(0.769226 0.845703)"/>
</clipPath>
</defs>
</svg>
